# AST/ASF file generated using VICON BodyLanguage
# -----------------------------------------------
:version 1.10
:name VICON
:units
  mass 1.0
  length 0.45
  angle deg
:documentation
   .ast/.asf automatically generated from VICON data using
   VICON BodyBuilder and BodyLanguage model FoxedUp or BRILLIANT.MOD
:root
   order TX TY TZ RX RY RZ
   axis XYZ
   position 0 0 0  
   orientation 0 0 0 
:bonedata
  begin
     id 1 
     name lhipjoint
     direction 0.734343 -0.627749 0.258209 
     length 2.5437 
     axis 0 0 0  XYZ
  end
  begin
     id 2 
     name lfemur
     direction 0.34202 -0.939693 0  
     length 6.7391  
     axis 0 0 20  XYZ
    dof rx ry rz
    limits (-160.0 20.0)
           (-70.0 70.0)
           (-60.0 70.0)
  end
  begin
     id 3 
     name ltibia
     direction 0.34202 -0.939693 0   
     length 7.21536   
     axis 0 0 20   XYZ
    dof rx
    limits (-10.0 170.0)
  end
  begin
     id 4 
     name lfoot
     direction 0.0489572 -0.134509 0.989702   
     length 1.61313   
     axis -90 7.62852e-016 20   XYZ
    dof rx rz
    limits (-45.0 90.0)
           (-70.0 20.0)
  end
  begin
     id 5 
     name ltoes
     direction 1.53451e-011 -4.21692e-011 1   
     length 0.823104   
     axis -90 7.62852e-016 20   XYZ
    dof rx
    limits (-90.0 20.0)
  end
  begin
     id 6 
     name rhipjoint
     direction -0.746398 -0.615468 0.253157   
     length 2.59446  
     axis 0 0 0  XYZ 
  end
  begin
     id 7 
     name rfemur
     direction -0.34202 -0.939693 0   
     length 6.7075   
     axis 0 0 -20   XYZ
    dof rx ry rz
    limits (-160.0 20.0)
           (-70.0 70.0)
           (-70.0 60.0)
  end
  begin
     id 8 
     name rtibia
     direction -0.34202 -0.939693 0   
     length 7.27262   
     axis 0 0 -20   XYZ
    dof rx
    limits (-10.0 170.0)
 end
 begin
     id 9 
     name rfoot
     direction -0.0455203 -0.125066 0.991104   
     length 1.91095  
     axis -90 -7.62852e-016 -20   XYZ
    dof rx rz
    limits (-45.0 90.0)
           (-20.0 70.0)
  end
  begin
     id 10 
     name rtoes
     direction -1.53601e-011 -4.21913e-011 1   
     length 0.969037   
     axis -90 -7.62852e-016 -20   XYZ
    dof rx
    limits (-90.0 20.0)
  end
  begin
     id 11 
     name lowerback
     direction 0.0181546 0.999122 -0.0377542   
     length 1.99916   
     axis 0 0 0   XYZ
    dof rx ry rz
    limits (-20.0 45.0)
           (-30.0 30.0)
           (-30.0 30.0)
  end
  begin
     id 12 
     name upperback
     direction 0.0203486 0.99589 0.0882534   
     length 1.951   
     axis 0 0 0   XYZ
    dof rx ry rz
    limits (-20.0 45.0)
           (-30.0 30.0)
           (-30.0 30.0)
  end
  begin
     id 13 
     name thorax
     direction 0.0131685 0.994241 0.106355   
     length 1.97461   
     axis 0 0 0   XYZ
    dof rx ry rz
    limits (-20.0 45.0)
           (-30.0 30.0)
           (-30.0 30.0)
  end
  begin
     id 14 
     name lowerneck
     direction -0.0281395 0.999325 0.023617   
     length 1.7959   
     axis 0 0 0   XYZ
    dof rx ry rz
    limits (-20.0 45.0)
           (-30.0 30.0)
           (-30.0 30.0)
  end
  begin
     id 15 
     name upperneck
     direction 0.0288721 0.991984 -0.123019   
     length 1.79917   
     axis 0 0 0   XYZ
    dof rx ry rz
    limits (-20.0 45.0)
           (-30.0 30.0)
           (-30.0 30.0)
  end
  begin
     id 16
     name head
     direction 0.0133797 0.998944 -0.0439492  
     length 1.80902  
     axis 0 0 0   XYZ
    dof rx ry rz
    limits (-20.0 45.0)
           (-30.0 30.0)
           (-30.0 30.0)
  end
  begin
     id 17 
     name lclavicle
     direction 0.919195 0.377107 0.113449  
     length 3.17815  
     axis 0 0 0   XYZ
    dof ry rz
    limits (-20.0 10.0)
           (0.0 20.0)
  end
  begin
     id 18 
     name lhumerus
     direction 1 -4.48959e-011 2.13129e-027   
     length 4.84137   
     axis 180 -30 -90   XYZ
    dof rx ry rz
    limits (-60.0 90.0)
           (-90.0 90.0)
           (-90.0 90.0)
  end
  begin
     id 19
     name lradius
     direction 1 -4.48957e-011 -6.30627e-028   
     length 3.2452   
     axis 180 -30 -90   XYZ
    dof rx
    limits (-10.0 170.0)
  end
  begin
     id 20
     name lwrist
     direction 1 -4.4901e-011 9.13299e-027   
     length 1.6226   
     axis -6.84618e-015 90 90   XYZ
    dof ry
    limits (-180.0 0.0)
 end
  begin
     id 21 
     name lhand
     direction 1 -4.48816e-011 1.82293e-026   
     length 0.521221   
     axis -1.16502e-014 90 90   XYZ
    dof rx rz
    limits (-90.0 90.0)
           (-45.0 45.0)
  end
  begin
     id 22 
     name lfingers
     direction 1 -4.49108e-011 3.65687e-026   
     length 0.420221   
     axis -2.33008e-014 90 90   XYZ
    dof rx
    limits (0.0 90.0)
  end
  begin
     id 23
     name lthumb
     direction 0.707107 -6.34943e-011 0.707107   
     length 0.603356   
     axis -90 45 5.69224e-014   XYZ
    dof rx rz
    limits (-45.0 45.0)
           (-45.0 45.0)
  end
  begin
     id 24 
     name rclavicle
     direction -0.90847 0.38596 0.160368   
     length 3.12973  
     axis 0 0 0   XYZ 
    dof ry rz
    limits (-10.0 20.0)
           (-20.0 0.0)
  end
  begin
     id 25 
     name rhumerus
     direction -1 -4.48974e-011 4.47268e-028  
     length 4.72284   
     axis 180 30 90   XYZ
    dof rx ry rz
    limits (-90.0 60.0)
           (-90.0 90.0)
           (-90.0 90.0)
  end
  begin
     id 26 
     name rradius
     direction -1 -4.48969e-011 3.43203e-027   
     length 3.23459   
     axis 180 30 90   XYZ
    dof rx
    limits (-10.0 170.0)
  end
  begin
     id 27 
     name rwrist
     direction -1 -4.48969e-011 9.12911e-027   
     length 1.6173   
     axis -6.84618e-015 -90 -90   XYZ
    dof ry
    limits (-180.0 0.0)
  end
  begin
     id 28
     name rhand
     direction -1 -4.49194e-011 1.83006e-026   
     length 0.307416   
     axis -1.16502e-014 -90 -90   XYZ
    dof rx rz
    limits (-90.0 90.0)
           (-45.0 45.0)
  end
  begin
     id 29
     name rfingers
     direction -1 -4.48423e-011 3.63103e-026   
     length 0.247847   
     axis -2.33008e-014 -90 -90   XYZ
    dof rx
    limits (0.0 90.0)
  end
  begin
     id 30
     name rthumb
     direction -0.707107 -6.34802e-011 0.707107   
     length 0.35586   
     axis -90 -45 -5.69224e-014   XYZ
    dof rx rz
    limits (-45.0 45.0)
           (-45.0 45.0)
  end
:hierarchy
  begin
    root lhipjoint rhipjoint lowerback
    lhipjoint lfemur
    lfemur ltibia
    ltibia lfoot
    lfoot ltoes
    rhipjoint rfemur
    rfemur rtibia
    rtibia rfoot
    rfoot rtoes
    lowerback upperback
    upperback thorax
    thorax lowerneck lclavicle rclavicle
    lowerneck upperneck
    upperneck head
    lclavicle lhumerus
    lhumerus lradius
    lradius lwrist
    lwrist lhand lthumb
    lhand lfingers
    rclavicle rhumerus
    rhumerus rradius
    rradius rwrist
    rwrist rhand rthumb
    rhand rfingers
  end

#!OML:ASF H:\Terrain\Patient Classification 1\Animal1\Tuesday\Animal1.ASF
:FULLY-SPECIFIED
:DEGREES
159
root -2.83424 16.9854 16.4556 -168.253 -8.37281 177.472
lowerback -5.62317 0.583226 -2.57701
upperback -5.5474 0.455158 -0.140027
thorax -2.59633 0.136 1.32183
lowerneck -4.92807 -2.52768 -6.88537
upperneck 28.7193 -8.69512 10.0345
head 10.7033 -4.85306 3.67209
rclavicle -3.27933e-014 -1.55052e-014
rhumerus -43.1338 9.11791 -91.369
rradius 24.0798
rwrist -9.74598
rhand -19.3006 29.7657
rfingers 7.12502
rthumb 7.01497 -0.0980609
lclavicle -3.27933e-014 -1.55052e-014
lhumerus -42.1968 10.2882 77.4288
lradius 36.4611
lwrist -25.8461
lhand 0.918331 41.216
lfingers 7.12502
lthumb 26.4697 69.3874
rfemur -25.2605 23.2912 10.0629
rtibia 26.4295
rfoot -3.64399 -31.6115
rtoes 0.864979
lfemur -11.1436 -26.0022 -17.2122
ltibia 13.031
lfoot -8.68026 26.9762
ltoes -15.7217
160
root -2.76629 16.9814 16.4133 -168.086 -8.29466 177.692
lowerback -6.22113 0.663289 -2.39778
upperback -5.32079 0.587054 -0.181706
thorax -2.02982 0.191874 1.18773
lowerneck -5.16777 -2.63058 -6.83054
upperneck 28.5031 -8.73826 10.056
head 10.6734 -4.82952 3.66024
rclavicle -1.97418e-014 2.78299e-015
rhumerus -42.6054 9.37229 -91.5827
rradius 23.8376
rwrist -9.60887
rhand -18.9133 29.1551
rfingers 7.12502
rthumb 7.38886 -0.695903
lclavicle -1.97418e-014 2.78299e-015
lhumerus -41.9028 10.7556 77.0738
lradius 36.1677
lwrist -26.1662
lhand 2.88218 42.4594
lfingers 7.12502
lthumb 28.348 70.3334
rfemur -25.2537 23.216 10.5504
rtibia 26.2047
rfoot -4.17252 -31.2435
rtoes 0.74943
lfemur -11.7236 -25.5002 -16.762
ltibia 13.9643
lfoot -8.54081 27.1579
ltoes -16.9112
161
root -2.69699 16.9829 16.3701 -167.917 -8.35221 178.063
lowerback -6.5967 0.700493 -2.13124
upperback -5.30759 0.62894 -0.125356
thorax -1.80555 0.200697 1.10139
lowerneck -5.13296 -2.63521 -6.73141
upperneck 28.2613 -8.65456 9.99976
head 10.5598 -4.77084 3.6323
rclavicle 4.06266e-015 5.76476e-015
rhumerus -42.39 9.39364 -91.5757
rradius 23.4136
rwrist -8.83929
rhand -18.0813 28.5847
rfingers 7.12502
rthumb 8.19186 -1.23648
lclavicle 4.06266e-015 5.76476e-015
lhumerus -42.0735 11.0713 76.7988
lradius 36.1266
lwrist -26.015
lhand 2.55449 42.1239
lfingers 7.12502
lthumb 28.0348 70.0495
rfemur -25.1966 23.179 11.2159
rtibia 25.949
rfoot -4.64531 -30.979
rtoes 2.496
lfemur -12.4095 -24.7367 -16.1161
ltibia 14.9706
lfoot -9.23865 26.7052
ltoes -15.3425
162
root -2.63341 16.9854 16.3217 -167.91 -8.51954 178.405
lowerback -6.7174 0.689659 -1.84772
upperback -5.35792 0.596115 -0.074059
thorax -1.78573 0.173894 0.994611
lowerneck -4.97464 -2.57007 -6.59806
upperneck 28.0978 -8.52805 9.95214
head 10.4461 -4.70467 3.6089
rclavicle 1.76546e-014 4.17448e-015
rhumerus -42.3413 9.36018 -91.6176
rradius 22.9066
rwrist -7.99019
rhand -17.4317 28.208
rfingers 7.12502
rthumb 8.81873 -1.58769
lclavicle 1.76546e-014 4.17448e-015
lhumerus -42.5415 11.1674 76.5969
lradius 36.3099
lwrist -25.6132
lhand 1.95293 41.6691
lfingers 7.12502
lthumb 27.4596 69.6874
rfemur -24.9245 23.2722 11.9006
rtibia 25.6845
rfoot -4.72546 -30.9245
rtoes 3.63139
lfemur -12.9599 -23.9666 -15.5944
ltibia 16.1145
lfoot -9.99446 26.0552
ltoes -13.012
163
root -2.5709 16.9812 16.2801 -167.857 -8.8375 178.663
lowerback -6.80534 0.614968 -1.64353
upperback -5.35755 0.488532 0.00328809
thorax -1.7311 0.114818 0.955002
lowerneck -4.99896 -2.60236 -6.67527
upperneck 28.0068 -8.54245 10.0034
head 10.4239 -4.70632 3.63876
rclavicle -1.26601e-014 -4.37326e-015
rhumerus -42.2056 9.97825 -91.9582
rradius 22.7066
rwrist -8.27508
rhand -17.1596 27.7308
rfingers 7.12502
rthumb 9.08137 -2.05366
lclavicle -1.26601e-014 -4.37326e-015
lhumerus -42.7537 11.5085 76.4255
lradius 36.223
lwrist -25.4635
lhand 3.32132 41.9488
lfingers 7.12502
lthumb 28.7676 69.7523
rfemur -24.7473 23.5454 12.4155
rtibia 25.4338
rfoot -4.46372 -31.2093
rtoes 2.99705
lfemur -13.6764 -23.3305 -15.1266
ltibia 17.3376
lfoot -10.313 25.6009
ltoes -11.8852
164
root -2.50053 16.9707 16.2469 -167.825 -9.27681 178.936
lowerback -6.83026 0.496542 -1.48402
upperback -5.30655 0.331657 0.0899052
thorax -1.6585 0.0355151 0.946753
lowerneck -5.02218 -2.64615 -6.67526
upperneck 27.779 -8.53947 10.0534
head 10.3458 -4.68402 3.65607
rclavicle -4.46644e-015 3.47873e-015
rhumerus -41.9883 10.4467 -92.1637
rradius 22.7364
rwrist -8.45855
rhand -17.0797 27.966
rfingers 7.12502
rthumb 9.15843 -1.81515
lclavicle -4.46644e-015 3.47873e-015
lhumerus -42.7289 11.9038 76.2564
lradius 35.9168
lwrist -25.4471
lhand 5.20301 41.5991
lfingers 7.12502
lthumb 30.5636 69.0828
rfemur -24.5661 23.8397 12.986
rtibia 25.2284
rfoot -4.77221 -31.7025
rtoes 3.81342
lfemur -14.4345 -22.5101 -14.6412
ltibia 18.5112
lfoot -10.3752 24.9953
ltoes -11.583
165
root -2.42918 16.9627 16.2138 -167.851 -9.30227 179.104
lowerback -6.92577 0.492404 -1.51563
upperback -5.16354 0.345105 0.119559
thorax -1.45812 0.0475132 0.995954
lowerneck -5.09168 -2.66682 -6.52114
upperneck 27.5201 -8.47009 9.99367
head 10.2478 -4.61917 3.61337
rclavicle -1.52195e-014 1.88845e-015
rhumerus -41.8079 10.6923 -92.2621
rradius 22.8793
rwrist -8.21243
rhand -17.7178 28.5985
rfingers 7.12502
rthumb 8.54269 -1.2087
lclavicle -1.52195e-014 1.88845e-015
lhumerus -42.6118 12.2528 76.0866
lradius 35.5588
lwrist -25.3779
lhand 6.88463 43.505
lfingers 7.12502
lthumb 32.1659 70.6776
rfemur -24.4413 24.1353 13.4636
rtibia 25.154
rfoot -5.10685 -31.9564
rtoes 4.66948
lfemur -14.935 -21.6811 -14.4235
ltibia 19.5873
lfoot -10.7098 24.7772
ltoes -10.6861
166
root -2.36923 16.9593 16.1756 -167.979 -9.21107 179.43
lowerback -6.41704 0.529588 -1.27102
upperback -5.36211 0.364536 0.19735
thorax -1.94407 0.0518661 0.937833
lowerneck -5.1904 -2.60851 -6.57559
upperneck 27.707 -8.41681 9.9891
head 10.3326 -4.60478 3.62625
rclavicle 6.17785e-015 1.09332e-015
rhumerus -42.1861 11.2268 -92.6166
rradius 22.9262
rwrist -8.25139
rhand -18.3468 28.3323
rfingers 7.12502
rthumb 7.93566 -1.49876
lclavicle 6.17785e-015 1.09332e-015
lhumerus -43.1107 12.5287 75.7778
lradius 35.3362
lwrist -25.3559
lhand 2.10678 41.3147
lfingers 7.12502
lthumb 27.6067 69.3096
rfemur -24.2868 24.5327 14.0989
rtibia 25.1863
rfoot -5.36784 -32.1536
rtoes 5.1433
lfemur -15.2576 -20.8643 -14.2077
ltibia 20.6385
lfoot -11.0369 25.2036
ltoes -10.0016
167
root -2.31297 16.9566 16.139 -167.984 -9.41673 179.494
lowerback -6.17574 0.506173 -1.13517
upperback -5.45272 0.3194 0.115611
thorax -2.16882 0.0238831 0.774784
lowerneck -5.24579 -2.62077 -6.48137
upperneck 27.709 -8.46145 10.0432
head 10.3479 -4.60897 3.62279
rclavicle 2.61371e-015 -3.97569e-016
rhumerus -42.2995 11.3213 -92.8299
rradius 22.9885
rwrist -8.37823
rhand -18.1641 27.5649
rfingers 7.12502
rthumb 8.11192 -2.25941
lclavicle 2.61371e-015 -3.97569e-016
lhumerus -43.261 12.5052 75.595
lradius 35.1088
lwrist -25.255
lhand 2.17816 41.1362
lfingers 7.12502
lthumb 27.675 69.1201
rfemur -24.1604 24.741 14.4519
rtibia 25.2347
rfoot -6.36039 -32.4351
rtoes 7.56264
lfemur -15.7932 -20.0325 -14.2639
ltibia 21.7316
lfoot -11.3312 25.7607
ltoes -9.96776
168
root -2.25235 16.9588 16.1083 -167.665 -9.52061 179.276
lowerback -6.15467 0.519812 -1.42631
upperback -5.62789 0.325673 -0.0193933
thorax -2.36541 0.027012 0.799494
lowerneck -5.29455 -2.65471 -6.40002
upperneck 27.7319 -8.55337 10.1251
head 10.3766 -4.63509 3.62648
rclavicle 3.14235e-014 2.5345e-015
rhumerus -42.5104 11.2929 -92.9005
rradius 23.3067
rwrist -8.58503
rhand -17.3149 27.4735
rfingers 7.12502
rthumb 8.93144 -2.31743
lclavicle 3.14235e-014 2.5345e-015
lhumerus -43.409 12.4893 75.4813
lradius 34.8434
lwrist -25.1433
lhand 4.5086 41.8543
lfingers 7.12502
lthumb 29.9012 69.4594
rfemur -24.4089 24.7372 14.3844
rtibia 25.2799
rfoot -6.68061 -32.5816
rtoes 8.55499
lfemur -16.6937 -19.0241 -14.5964
ltibia 22.8488
lfoot -11.6252 26.1162
ltoes -8.70783
